<?xml version="1.0" encoding="utf-8"?>
<!-- Generator: Adobe Illustrator 15.1.0, SVG Export Plug-In . SVG Version: 6.00 Build 0)  -->
<!DOCTYPE svg PUBLIC "-//W3C//DTD SVG 1.1//EN" "http://www.w3.org/Graphics/SVG/1.1/DTD/svg11.dtd">
<svg version="1.1" id="Layer_1" xmlns="http://www.w3.org/2000/svg" xmlns:xlink="http://www.w3.org/1999/xlink" x="0px" y="0px"
	 width="60px" height="60px" viewBox="0 0 60 60" enable-background="new 0 0 60 60" xml:space="preserve">
<g id="Outline_Filled">
	<path id="Cat_3_" fill="#FFFFFF" d="M41.189,58.261H33.71h-7.486c0,0,0.021-4.442,0-7.486C15.979,52.981,13.12,45.16,13.12,45.16
		c-1.87-3.745-3.745-5.615-3.745-5.615c-3.745-2.222,0-1.87,0-1.87c3.745,0,5.615,3.745,5.615,3.745
		c3.286,5.577,9.13,4.68,11.229,3.745c0-1.871,0.819-4.702,1.87-5.615c-8.175-0.919-14.98-5.614-14.98-14.974
		s1.88-11.229,3.751-13.104c-0.377-0.923-1.945-4.335,0.057-9.359c0,0,3.679,0,7.423,5.615c1.854-1.854,7.486-1.87,9.359-1.87
		c1.867,0,7.502,0.016,9.355,1.87c3.745-5.615,7.433-5.615,7.433-5.615c2.003,5.024,0.437,8.437,0.058,9.359
		c1.869,1.87,3.744,3.745,3.744,13.104S47.494,38.627,39.315,39.55c1.054,0.913,1.87,4.134,1.87,5.615L41.189,58.261L41.189,58.261z
		"/>
</g>
</svg>
