<?xml version="1.0" encoding="utf-8"?>
<!-- Generator: Adobe Illustrator 15.1.0, SVG Export Plug-In . SVG Version: 6.00 Build 0)  -->
<!DOCTYPE svg PUBLIC "-//W3C//DTD SVG 1.1//EN" "http://www.w3.org/Graphics/SVG/1.1/DTD/svg11.dtd">
<svg version="1.1" id="Layer_1" xmlns="http://www.w3.org/2000/svg" xmlns:xlink="http://www.w3.org/1999/xlink" x="0px" y="0px"
	 width="60px" height="60px" viewBox="0 0 60 60" enable-background="new 0 0 60 60" xml:space="preserve">
<path fill="#FFFFFF" d="M57.25,52.831V33.037c0-10.604-5.661-15.54-13.211-15.54c-6.092,0-8.821,3.351-10.341,5.703v-4.894H22.223
	c0.151,3.242,0,34.524,0,34.524h11.475V33.55c0-1.027,0.075-2.061,0.378-2.796c0.828-2.061,2.716-4.196,5.887-4.196
	c4.154,0,5.814,3.164,5.814,7.806v18.472L57.25,52.831L57.25,52.831z M10.132,13.596c3.999,0,6.492-2.655,6.492-5.967
	c-0.074-3.387-2.493-5.964-6.418-5.964c-3.926,0-6.49,2.578-6.49,5.964c0,3.315,2.49,5.967,6.345,5.967H10.132z M15.869,52.831
	V18.307H4.397v34.524H15.869L15.869,52.831z"/>
</svg>
